<?xml version="1.0" encoding="UTF-8" standalone="no"?>
<!-- Created with Inkscape (http://www.inkscape.org/) -->

<svg
   xmlns:dc="http://purl.org/dc/elements/1.1/"
   xmlns:cc="http://creativecommons.org/ns#"
   xmlns:rdf="http://www.w3.org/1999/02/22-rdf-syntax-ns#"
   xmlns:svg="http://www.w3.org/2000/svg"
   xmlns="http://www.w3.org/2000/svg"
   xmlns:sodipodi="http://sodipodi.sourceforge.net/DTD/sodipodi-0.dtd"
   xmlns:inkscape="http://www.inkscape.org/namespaces/inkscape"
   width="210mm"
   height="297mm"
   viewBox="0 0 210 297"
   version="1.1"
   id="svg8"
   inkscape:version="0.92.4 (5da689c313, 2019-01-14)"
   sodipodi:docname="WorldGenLogo.svg">
  <defs
     id="defs2" />
  <sodipodi:namedview
     id="base"
     pagecolor="#ffffff"
     bordercolor="#666666"
     borderopacity="1.0"
     inkscape:pageopacity="0.0"
     inkscape:pageshadow="2"
     inkscape:zoom="11.2"
     inkscape:cx="174.36343"
     inkscape:cy="690.20469"
     inkscape:document-units="mm"
     inkscape:current-layer="text3715"
     showgrid="false"
     inkscape:window-width="1851"
     inkscape:window-height="1057"
     inkscape:window-x="61"
     inkscape:window-y="-8"
     inkscape:window-maximized="1" />
  <metadata
     id="metadata5">
    <rdf:RDF>
      <cc:Work
         rdf:about="">
        <dc:format>image/svg+xml</dc:format>
        <dc:type
           rdf:resource="http://purl.org/dc/dcmitype/StillImage" />
        <dc:title></dc:title>
      </cc:Work>
    </rdf:RDF>
  </metadata>
  <g
     inkscape:label="Layer 1"
     inkscape:groupmode="layer"
     id="layer1">
    <ellipse
       style="font-style:normal;font-weight:normal;font-size:10.58333302px;line-height:1.25;font-family:sans-serif;letter-spacing:0px;word-spacing:0px;fill:#ff8080;fill-opacity:1;stroke:#ffffff;stroke-width:0.01824035;stroke-miterlimit:4;stroke-dasharray:none;stroke-opacity:1"
       id="path3720"
       cx="53.173283"
       cy="110.5893"
       rx="0.32632622"
       ry="0.32513094" />
    <g
       aria-label="W"
       style="font-style:normal;font-weight:normal;font-size:10.58333302px;line-height:1.25;font-family:sans-serif;letter-spacing:0px;word-spacing:0px;fill:#000000;fill-opacity:1;stroke:none;stroke-width:0.26458332"
       id="text3715"
       transform="translate(-0.20974559,0.20401357)">
      <path
         style="font-style:normal;font-variant:normal;font-weight:normal;font-stretch:normal;font-family:'Times New Roman';-inkscape-font-specification:'Times New Roman, ';stroke-width:0.99999994"
         d="m 163.57422,411.18164 v 0.72266 c 0.76823,0 1.3737,0.12366 1.8164,0.37109 0.45573,0.23436 0.81381,0.59896 1.07422,1.09375 0.15625,0.29949 0.52735,1.26954 1.11328,2.91016 l 7.8711,21.99218 h 0.70312 l 5.9961,-16.93359 0.97656,2.74219 1.95312,-5.41016 -0.54687,-1.55078 c -0.58594,-1.65364 -0.87891,-2.8125 -0.87891,-3.47656 0,-0.53385 0.16927,-0.95702 0.50782,-1.26953 0.33854,-0.31249 0.87239,-0.46875 1.60156,-0.46875 h 0.70312 v -0.72266 h -10.3125 v 0.72266 c 0.53387,0 0.9245,0.0391 1.17188,0.11718 0.32552,0.10422 0.65104,0.27349 0.97656,0.50782 0.2474,0.16922 0.45573,0.37756 0.625,0.625 0.33854,0.49479 0.64453,1.06771 0.91797,1.71875 l 0.625,1.77734 0.78125,2.22656 -4.39453,12.63672 -5.21485,-14.86328 c -0.57291,-1.64064 -0.85937,-2.68882 -0.85937,-3.14453 0,-0.44271 0.18229,-0.8203 0.54687,-1.13281 0.36459,-0.31249 0.89193,-0.46875 1.58204,-0.46875 h 0.46875 v -0.72266 z"
         transform="matrix(0.26458333,0,0,0.26458333,-0.05011304,0.15033911)"
         id="path3717"
         inkscape:connector-curvature="0" />
      <rect
         style="fill:#80ffe6;stroke:#ffffff;stroke-width:0.09206971;stroke-miterlimit:4;stroke-dasharray:none;stroke-opacity:1"
         id="rect3724"
         width="1.9479208"
         height="2.0348136"
         x="16.155504"
         y="123.29804"
         transform="matrix(0.95045914,-0.31084952,0.28222869,0.95934716,0,0)" />
      <path
         style="fill:#ffe680;stroke:#ffffff;stroke-width:0.14111111;stroke-miterlimit:4;stroke-dasharray:none;stroke-opacity:1"
         d="m 50.532846,109.56069 -1.502236,1.38803 -0.112138,-0.0253 -1.110009,3.0763 1.068668,-0.12609 1.349271,1.53737 0.39946,-2.00556 1.878955,-0.80822 -1.783871,-0.99994 z"
         id="path3722"
         inkscape:connector-curvature="0" />
      <rect
         transform="matrix(0.86465349,0.50236873,-0.49790088,0.86723394,0,0)"
         y="70.973007"
         x="102.09892"
         height="0.54360676"
         width="0.50995374"
         id="rect4610"
         style="fill:#80ffe6;stroke:#ffffff;stroke-width:0.02434875;stroke-miterlimit:4;stroke-dasharray:none;stroke-opacity:1" />
    </g>
    <ellipse
       style="font-style:normal;font-weight:normal;font-size:10.58333302px;line-height:1.25;font-family:sans-serif;letter-spacing:0px;word-spacing:0px;fill:#ff8080;fill-opacity:1;stroke:#ffffff;stroke-width:0.02984274;stroke-miterlimit:4;stroke-dasharray:none;stroke-opacity:1"
       id="path3720-7"
       cx="51.357517"
       cy="111.03571"
       rx="0.53389692"
       ry="0.53194135" />
    <ellipse
       style="font-style:normal;font-weight:normal;font-size:10.58333302px;line-height:1.25;font-family:sans-serif;letter-spacing:0px;word-spacing:0px;fill:#ff8080;fill-opacity:1;stroke:#ffffff;stroke-width:0.01892398;stroke-miterlimit:4;stroke-dasharray:none;stroke-opacity:1"
       id="path3720-1"
       cx="52.196152"
       cy="109.55996"
       rx="0.33855647"
       ry="0.33731639" />
  </g>
</svg>
